USFL
nRows=124
nColumns=2
inDegrees=yes
endheader
time	soleus_r	
4.24973	 20.017264	
4.31222	 19.940539	
4.37472	 19.881984	
4.43722	 19.864052	
4.49971	 19.807654	
4.56221	 19.883208	
4.6247	 19.850418	
4.6872	 19.883075	
4.7497	 19.873930	
4.81219	 19.880663	
4.87469	 19.874813	
4.93718	 19.887780	
4.99968	 19.892863	
5.06218	 19.955140	
5.12467	 19.980965	
5.18717	 19.929002	
5.24966	 19.954978	
5.31216	 19.971407	
5.37466	 19.950680	
5.43715	 19.920863	
5.49965	 19.860012	
5.56214	 19.641538	
5.62464	 19.562179	
5.68714	 19.699351	
5.74963	 19.722529	
5.81213	 19.754155	
5.87462	 19.669628	
5.93712	 19.604143	
5.99962	 19.524679	
6.06211	 20.171162	
6.12461	 19.993056	
6.1871	 19.879988	
6.2496	 19.710373	
6.3121	 19.848955	
6.37459	 20.120706	
6.43709	 20.194611	
6.49958	 20.004363	
6.56208	 20.332573	
6.62458	 20.359944	
6.68707	 20.971046	
6.74957	 21.158499	
6.81206	 21.170173	
6.87456	 21.275542	
6.93706	 21.574479	
6.99955	 21.614607	
7.06205	 21.702698	
7.12454	 22.008417	
7.18704	 21.886753	
7.24954	 21.710325	
7.31203	 21.993008	
7.37453	 21.985406	
7.43702	 21.945145	
7.49952	 21.927908	
7.56202	 21.999202	
7.62451	 21.899704	
7.68701	 21.934203	
7.7495	 22.014846	
7.812	 22.015091	
7.8745	 21.939007	
7.93699	 21.855961	
7.99949	 21.732725	
8.06198	 21.692885	
8.12448	 21.636451	
8.18698	 21.666100	
8.24947	 21.649965	
8.31197	 21.573108	
8.37446	 21.614065	
8.43696	 21.570914	
8.49946	 21.653348	
8.56195	 21.530928	
8.62445	 21.600558	
8.68694	 21.645719	
8.74944	 21.640603	
8.81194	 21.791153	
8.87443	 21.841271	
8.93693	 21.846905	
8.99942	 21.780350	
9.06192	 21.669858	
9.12442	 21.919911	
9.18691	 22.258567	
9.24941	 22.346063	
9.3119	 22.403593	
9.3744	 22.515552	
9.4369	 22.605162	
9.49939	 22.644095	
9.56189	 22.727075	
9.62438	 22.693324	
9.68688	 22.864494	
9.74938	 22.999904	
9.81187	 23.130620	
9.87437	 23.314692	
9.93686	 23.928834	
9.99936	 24.083463	
10.0619	 23.930631	
10.1244	 23.816799	
10.1868	 23.785809	
10.2493	 23.785699	
10.3118	 23.649419	
10.3743	 23.644556	
10.4368	 24.401771	
10.4993	 24.150992	
10.5618	 24.090408	
10.6243	 24.050599	
10.6868	 23.568926	
10.7493	 23.414005	
10.8118	 23.709203	
10.8743	 23.940891	
10.9368	 20.736391	
10.9993	 20.738244	
11.0618	 20.404920	
11.1243	 20.347049	
11.1868	 20.348271	
11.2493	 20.286981	
11.3118	 20.310042	
11.3743	 20.354121	
11.4368	 20.373993	
11.4993	 20.314274	
11.5618	 20.393715	
11.6243	 20.293306	
11.6868	 20.272425	
11.7492	 20.237153	
11.8117	 20.361619	
11.8742	 20.376798	
11.9367	 20.178247	
